<svg width="151" height="30" viewBox="0 0 151 30" fill="none" xmlns="http://www.w3.org/2000/svg">
<path d="M27.0635 0L5 23H37.3704V12.8835H30.6803C29.7211 12.8835 28.8012 12.5064 28.123 11.8353C27.4447 11.1642 27.0636 10.254 27.0635 9.30483V0Z" fill="url(#paint0_linear_21_4430)"/>
<path d="M37.3704 12.8839V22.9996H5L23.7994 3.40271V9.30443C23.7994 10.2538 24.1805 11.1642 24.8589 11.8355C25.5372 12.5067 26.4573 12.8839 27.4166 12.8839H37.3704Z" fill="url(#paint1_linear_21_4430)"/>
<path d="M37.3704 12.8839V22.9996H5L20.6908 6.64319V9.30447C20.6908 10.2537 21.0719 11.1641 21.7501 11.8354C22.4284 12.5066 23.3483 12.8838 24.3076 12.8839H37.3704Z" fill="url(#paint2_linear_21_4430)"/>
<path d="M57.2904 23.22C56.4237 23.22 55.617 23.12 54.8704 22.92C54.1237 22.72 53.5037 22.4467 53.0104 22.1L53.7304 20.14C54.2237 20.4467 54.7837 20.6933 55.4104 20.88C56.0504 21.0533 56.6837 21.14 57.3104 21.14C57.8704 21.14 58.2837 21.0533 58.5504 20.88C58.817 20.6933 58.9504 20.4533 58.9504 20.16C58.9504 19.6933 58.6104 19.4 57.9304 19.28L55.8304 18.9C54.9904 18.7533 54.3504 18.4533 53.9104 18C53.4704 17.5467 53.2504 16.9533 53.2504 16.22C53.2504 15.5533 53.437 14.98 53.8104 14.5C54.1837 14.02 54.697 13.6467 55.3504 13.38C56.0037 13.1133 56.757 12.98 57.6104 12.98C58.317 12.98 59.0037 13.0733 59.6704 13.26C60.337 13.4333 60.9104 13.7133 61.3904 14.1L60.6304 16.04C60.2304 15.7467 59.7504 15.5067 59.1904 15.32C58.6437 15.1333 58.1304 15.04 57.6504 15.04C57.0504 15.04 56.617 15.14 56.3504 15.34C56.0837 15.5267 55.9504 15.7667 55.9504 16.06C55.9504 16.5267 56.2637 16.82 56.8904 16.94L58.9904 17.32C59.857 17.4667 60.517 17.76 60.9704 18.2C61.4237 18.6267 61.6504 19.2133 61.6504 19.96C61.6504 20.9867 61.2504 21.7867 60.4504 22.36C59.6504 22.9333 58.597 23.22 57.2904 23.22ZM68.2941 23.22C67.2408 23.22 66.3208 23.0133 65.5341 22.6C64.7608 22.1733 64.1608 21.58 63.7341 20.82C63.3074 20.0467 63.0941 19.1333 63.0941 18.08C63.0941 17.04 63.3074 16.14 63.7341 15.38C64.1608 14.6067 64.7608 14.0133 65.5341 13.6C66.3208 13.1867 67.2408 12.98 68.2941 12.98C69.3474 12.98 70.2608 13.1867 71.0341 13.6C71.8208 14.0133 72.4274 14.6067 72.8541 15.38C73.2941 16.14 73.5141 17.04 73.5141 18.08C73.5141 19.1333 73.2941 20.0467 72.8541 20.82C72.4274 21.58 71.8208 22.1733 71.0341 22.6C70.2608 23.0133 69.3474 23.22 68.2941 23.22ZM68.2941 20.96C68.9341 20.96 69.4541 20.7267 69.8541 20.26C70.2674 19.7933 70.4741 19.0667 70.4741 18.08C70.4741 17.1067 70.2674 16.3933 69.8541 15.94C69.4541 15.4733 68.9341 15.24 68.2941 15.24C67.6541 15.24 67.1341 15.4733 66.7341 15.94C66.3341 16.3933 66.1341 17.1067 66.1341 18.08C66.1341 19.0667 66.3341 19.7933 66.7341 20.26C67.1341 20.7267 67.6541 20.96 68.2941 20.96ZM75.5515 23V13.18H78.5115V14.88C78.9781 13.7333 79.9781 13.1 81.5115 12.98L82.3915 12.92L82.5715 15.46L80.8715 15.64C79.3781 15.7867 78.6315 16.5467 78.6315 17.92V23H75.5515ZM89.3996 23.22C86.6396 23.22 85.2596 21.88 85.2596 19.2V15.44H83.3996V13.18H85.2596V10.3H88.2796V13.18H91.1796V15.44H88.2796V19.08C88.2796 19.64 88.4062 20.06 88.6596 20.34C88.9262 20.62 89.3462 20.76 89.9196 20.76C90.0929 20.76 90.2729 20.74 90.4596 20.7C90.6596 20.66 90.8729 20.6067 91.0996 20.54L91.5396 22.74C91.2596 22.8867 90.9262 23 90.5396 23.08C90.1529 23.1733 89.7729 23.22 89.3996 23.22ZM97.8679 23.22C96.7079 23.22 95.7079 23.0133 94.8679 22.6C94.0412 22.1733 93.4012 21.58 92.9479 20.82C92.5079 20.0467 92.2879 19.14 92.2879 18.1C92.2879 17.0867 92.5012 16.2 92.9279 15.44C93.3679 14.6667 93.9612 14.0667 94.7079 13.64C95.4679 13.2 96.3412 12.98 97.3279 12.98C98.7545 12.98 99.8879 13.4333 100.728 14.34C101.568 15.2333 101.988 16.4467 101.988 17.98V18.74H95.1679C95.2745 19.5133 95.5545 20.08 96.0079 20.44C96.4745 20.7867 97.1145 20.96 97.9279 20.96C98.4612 20.96 99.0012 20.88 99.5479 20.72C100.095 20.56 100.588 20.3133 101.028 19.98L101.828 22C101.335 22.3733 100.728 22.6733 100.008 22.9C99.3012 23.1133 98.5879 23.22 97.8679 23.22ZM97.4479 14.98C96.8079 14.98 96.2879 15.1733 95.8879 15.56C95.5012 15.9467 95.2612 16.4867 95.1679 17.18H99.4879C99.4079 15.7133 98.7279 14.98 97.4479 14.98ZM108.724 23.22C107.658 23.22 106.724 23.0133 105.924 22.6C105.138 22.1733 104.531 21.5733 104.104 20.8C103.678 20.0267 103.464 19.1133 103.464 18.06C103.464 17.0067 103.678 16.1 104.104 15.34C104.531 14.58 105.138 14 105.924 13.6C106.724 13.1867 107.658 12.98 108.724 12.98C109.351 12.98 109.984 13.0733 110.624 13.26C111.264 13.4467 111.784 13.7133 112.184 14.06L111.344 16.14C111.011 15.8733 110.638 15.6667 110.224 15.52C109.811 15.36 109.411 15.28 109.024 15.28C108.238 15.28 107.624 15.5267 107.184 16.02C106.758 16.5 106.544 17.1867 106.544 18.08C106.544 18.96 106.758 19.6533 107.184 20.16C107.624 20.6533 108.238 20.9 109.024 20.9C109.398 20.9 109.791 20.8267 110.204 20.68C110.631 20.5333 111.011 20.32 111.344 20.04L112.184 22.12C111.784 22.4667 111.264 22.74 110.624 22.94C109.984 23.1267 109.351 23.22 108.724 23.22ZM118.22 23.22C117.167 23.22 116.247 23.0133 115.46 22.6C114.687 22.1733 114.087 21.58 113.66 20.82C113.233 20.0467 113.02 19.1333 113.02 18.08C113.02 17.04 113.233 16.14 113.66 15.38C114.087 14.6067 114.687 14.0133 115.46 13.6C116.247 13.1867 117.167 12.98 118.22 12.98C119.273 12.98 120.187 13.1867 120.96 13.6C121.747 14.0133 122.353 14.6067 122.78 15.38C123.22 16.14 123.44 17.04 123.44 18.08C123.44 19.1333 123.22 20.0467 122.78 20.82C122.353 21.58 121.747 22.1733 120.96 22.6C120.187 23.0133 119.273 23.22 118.22 23.22ZM118.22 20.96C118.86 20.96 119.38 20.7267 119.78 20.26C120.193 19.7933 120.4 19.0667 120.4 18.08C120.4 17.1067 120.193 16.3933 119.78 15.94C119.38 15.4733 118.86 15.24 118.22 15.24C117.58 15.24 117.06 15.4733 116.66 15.94C116.26 16.3933 116.06 17.1067 116.06 18.08C116.06 19.0667 116.26 19.7933 116.66 20.26C117.06 20.7267 117.58 20.96 118.22 20.96ZM125.517 23V13.18H128.477V14.6C128.771 14.0933 129.171 13.7 129.677 13.42C130.197 13.1267 130.797 12.98 131.477 12.98C132.171 12.98 132.757 13.1333 133.237 13.44C133.731 13.7467 134.104 14.2133 134.357 14.84C134.664 14.2533 135.104 13.8 135.677 13.48C136.264 13.1467 136.911 12.98 137.617 12.98C138.737 12.98 139.571 13.32 140.117 14C140.664 14.6667 140.937 15.7 140.937 17.1V23H137.917V17.2C137.917 16.5467 137.811 16.0733 137.597 15.78C137.397 15.4733 137.051 15.32 136.557 15.32C135.984 15.32 135.537 15.52 135.217 15.92C134.897 16.32 134.737 16.8867 134.737 17.62V23H131.717V17.2C131.717 16.5467 131.611 16.0733 131.397 15.78C131.184 15.4733 130.837 15.32 130.357 15.32C129.784 15.32 129.337 15.52 129.017 15.92C128.697 16.32 128.537 16.8867 128.537 17.62V23H125.517Z" fill="#18A0FB"/>
<defs>
<linearGradient id="paint0_linear_21_4430" x1="21.962" y1="12.6617" x2="27.646" y2="12.004" gradientUnits="userSpaceOnUse">
<stop stop-color="#004AF7"/>
<stop offset="1" stop-color="#00D0FF"/>
</linearGradient>
<linearGradient id="paint1_linear_21_4430" x1="17.5343" y1="13.222" x2="23.9577" y2="13.2659" gradientUnits="userSpaceOnUse">
<stop stop-color="#004AF7"/>
<stop offset="1" stop-color="#00D0FF"/>
</linearGradient>
<linearGradient id="paint2_linear_21_4430" x1="25.2042" y1="29.4781" x2="18.9636" y2="11.1852" gradientUnits="userSpaceOnUse">
<stop stop-color="#004AF7"/>
<stop offset="1" stop-color="#00D0FF"/>
</linearGradient>
</defs>
</svg>
