<svg width="25" height="25" viewBox="0 0 25 25" fill="none" xmlns="http://www.w3.org/2000/svg">
<path d="M5.83332 7.6067L6.50854 18.6788C6.58319 19.8892 7.60153 20.8333 8.83538 20.8333H15.8241C17.0309 20.8333 18.0382 19.9289 18.1475 18.7477L19.1667 7.6067M5.83332 7.6067C4.83036 7.67539 4.16666 7.72929 4.16666 7.72929M5.83332 7.6067C7.59491 7.48606 10.4031 7.31979 12.5 7.31979C14.5969 7.31979 17.4051 7.48606 19.1667 7.6067M19.1667 7.6067C20.1696 7.67539 20.8333 7.72929 20.8333 7.72929" stroke="#CACACA" stroke-width="1.5" stroke-linecap="round"/>
<path d="M10 6.86937V5.16666C10 4.61438 10.4477 4.16666 11 4.16666H14C14.5523 4.16666 15 4.61438 15 5.16666V6.86937" stroke="#CACACA" stroke-width="1.5" stroke-linecap="round"/>
<path d="M9.16672 6.86938L10.8334 6.86938" stroke="#CACACA" stroke-width="1.5" stroke-linecap="round"/>
<path d="M14.1666 6.86938H15.8333" stroke="#CACACA" stroke-width="1.5" stroke-linecap="round"/>
<path d="M12.5 11.3739V16.7793" stroke="#CACACA" stroke-width="1.5" stroke-linecap="round"/>
<path d="M9.16672 12.2748L9.16672 15.8784" stroke="#CACACA" stroke-width="1.5" stroke-linecap="round"/>
<path d="M15.8333 12.2748L15.8333 15.8784" stroke="#CACACA" stroke-width="1.5" stroke-linecap="round"/>
</svg>
