<svg xmlns="http://www.w3.org/2000/svg" viewBox="0 0 70.35 46.81"><defs><style>.cls-1{fill:#cacaca;}</style></defs><g id="Layer_2" data-name="Layer 2"><g id="Object"><path class="cls-1" d="M.14,43l30.8-18.17L0,6.63v35.3A4.56,4.56,0,0,0,.14,43Z"/><path class="cls-1" d="M32.31,25.67.66,44.33a4.85,4.85,0,0,0,4.22,2.48h60.6A4.87,4.87,0,0,0,69.9,44l-31-18.28-3.3,1.95Z"/><path class="cls-1" d="M70.35,41.93V7.13L40.27,24.87l30,17.71A4.76,4.76,0,0,0,70.35,41.93Z"/><path class="cls-1" d="M4.88,0A4.87,4.87,0,0,0,0,4.87V5L35.6,26,70.35,5.52V4.87A4.87,4.87,0,0,0,65.48,0Z"/></g></g></svg>