<svg width="24" height="24" viewBox="0 0 24 24" fill="none" xmlns="http://www.w3.org/2000/svg">
<path d="M16.0195 20H7.98041C6.36531 20 5.08512 18.6373 5.18586 17.0253L5.83586 6.62534C5.92809 5.14964 7.15183 4 8.63041 4H15.3695C16.8481 4 18.0718 5.14964 18.164 6.62534L18.814 17.0253C18.9148 18.6373 17.6346 20 16.0195 20Z" stroke="#292D32" stroke-width="1.5" stroke-linecap="round"/>
<path d="M6 15H9C9.55228 15 10 15.4477 10 16V16C10 16.5523 10.4477 17 11 17H13C13.5523 17 14 16.5523 14 16V16C14 15.4477 14.4477 15 15 15H18" stroke="#292D32" stroke-width="1.5" stroke-linecap="round"/>
<path d="M9 11H15" stroke="#292D32" stroke-width="1.5" stroke-linecap="round"/>
<path d="M10 8H14" stroke="#292D32" stroke-width="1.5" stroke-linecap="round"/>
</svg>
