<svg width="24" height="24" viewBox="0 0 24 24" fill="none" xmlns="http://www.w3.org/2000/svg">
<path d="M17.5 9C17.7761 9 18 9.22386 18 9.5V18.2C18 19.7464 16.7464 21 15.2 21H8.8C7.2536 21 6 19.7464 6 18.2L6 9.5C6 9.22386 6.22386 9 6.5 9L17.5 9Z" stroke="#292D32" stroke-width="1.5"/>
<path d="M16 9V3.25C16 3.11193 15.8881 3 15.75 3L8.25 3C8.11193 3 8 3.11193 8 3.25V9" stroke="#292D32" stroke-width="1.5" stroke-linecap="round"/>
<rect x="10" y="5" width="1" height="1" rx="0.25" fill="#292D32"/>
<rect x="13" y="5" width="1" height="1" rx="0.25" fill="#292D32"/>
<path d="M6 18H18" stroke="#292D32" stroke-width="1.5"/>
</svg>
