<svg width="26" height="29" viewBox="0 0 26 29" fill="none" xmlns="http://www.w3.org/2000/svg">
<path d="M15.5062 6.00489L15.8885 5.14063C16.1727 4.49791 16.9242 4.20734 17.567 4.49163V4.49163C18.2097 4.77592 18.5003 5.52741 18.216 6.17013L17.8073 7.09404" stroke="#B3B3B3" stroke-width="1.5"/>
<path d="M18.0019 7.18015L14.9747 5.84116C12.2948 4.65578 9.4836 6.10197 9.09972 8.72099C8.72222 11.2965 7.92924 12.9988 4.75277 15.5265C4.75277 15.5265 8.23729 16.6453 10.401 17.5467L10.4698 17.5754C11.3448 17.9398 11.8571 18.1533 12.7285 18.5762C14.3024 19.3401 15.1347 19.8676 16.6248 20.7777C17.1515 21.0995 17.9631 21.6174 17.9631 21.6174C17.3804 18.4953 18.2819 16.1186 19.9444 13.837C21.5525 11.6299 20.7741 8.40631 18.0019 7.18015Z" fill="#B3B3B3" stroke="#B3B3B3" stroke-width="1.5" stroke-linecap="round"/>
<ellipse cx="10.8722" cy="19.6272" rx="8.9076" ry="1.71208" transform="rotate(23.8607 10.8722 19.6272)" fill="#B3B3B3" stroke="#B3B3B3" stroke-width="1.5"/>
<path d="M11.1219 25.3539C11.1219 25.3539 10.2723 26.2261 8.33272 25.3682C6.39313 24.5103 6.46692 23.2949 6.46692 23.2949" stroke="#B3B3B3" stroke-width="1.4" stroke-linecap="round" stroke-linejoin="round"/>
</svg>
