<svg xmlns="http://www.w3.org/2000/svg" viewBox="0 0 70.04 70.7"><defs><style>.cls-1{fill:#cacaca;}</style></defs><g id="Layer_2" data-name="Layer 2"><g id="Object"><path class="cls-1" d="M22.08,30.62l2.14-2.36a9.83,9.83,0,0,0-.7-13.87l-3.6-3.26a9.82,9.82,0,0,0-13.87.69L3.91,14.18a9.86,9.86,0,0,0-.78,1l-.1.1C1,17-.7,21.2.29,26.34a55.11,55.11,0,0,0,49,44.29,13.85,13.85,0,0,0,8.44-1.76,10.07,10.07,0,0,0,2.4-1.94l2.14-2.36a9.84,9.84,0,0,0-.7-13.87l-3.61-3.26a9.8,9.8,0,0,0-13.86.7L41.93,50.5a10,10,0,0,0-2,3.45l-.19.57-.56-.22A41.35,41.35,0,0,1,17.29,34.24l-.3-.61.65-.2A9.76,9.76,0,0,0,22.08,30.62Z"/><path class="cls-1" d="M34.07,2.29a2.3,2.3,0,0,0,2.29,2.29,29.13,29.13,0,0,1,29.1,29.1,2.29,2.29,0,0,0,4.58,0A33.72,33.72,0,0,0,36.36,0,2.3,2.3,0,0,0,34.07,2.29Z"/><path class="cls-1" d="M33.7,13.49A2.3,2.3,0,0,0,36,15.78,18.28,18.28,0,0,1,54.26,34.05a2.29,2.29,0,0,0,4.58,0A22.88,22.88,0,0,0,36,11.2,2.3,2.3,0,0,0,33.7,13.49Z"/></g></g></svg>