<svg width="24" height="24" viewBox="0 0 24 24" fill="none" xmlns="http://www.w3.org/2000/svg">
<path fill-rule="evenodd" clip-rule="evenodd" d="M14.8369 2.26758C14.154 -0.755853 9.84603 -0.755864 9.16308 2.26757L9.0072 2.9577C8.87765 3.53122 8.2195 3.80383 7.72236 3.4899L7.12414 3.11214C4.50334 1.45716 1.45716 4.50333 3.11213 7.12414L3.4899 7.72236C3.80383 8.2195 3.53122 8.87765 2.9577 9.0072L2.26758 9.16308C-0.755853 9.84603 -0.755864 14.154 2.26757 14.8369L2.9577 14.9928C3.53122 15.1224 3.80383 15.7805 3.4899 16.2776L3.11214 16.8759C1.45716 19.4967 4.50333 22.5428 7.12414 20.8879L7.72236 20.5101C8.21951 20.1962 8.87765 20.4688 9.0072 21.0423L9.16308 21.7324C9.84603 24.7559 14.154 24.7559 14.8369 21.7324L14.9928 21.0423C15.1224 20.4688 15.7805 20.1962 16.2776 20.5101L16.8759 20.8879C19.4967 22.5428 22.5428 19.4967 20.8879 16.8759L20.5101 16.2776C20.1962 15.7805 20.4688 15.1224 21.0423 14.9928L21.7324 14.8369C24.7559 14.154 24.7559 9.84603 21.7324 9.16308L21.0423 9.0072C20.4688 8.87765 20.1962 8.2195 20.5101 7.72236L20.8879 7.12414C22.5428 4.50334 19.4967 1.45716 16.8759 3.11213L16.2776 3.4899C15.7805 3.80383 15.1224 3.53122 14.9928 2.9577L14.8369 2.26758ZM10.4003 12.0002C10.4003 11.1166 11.1165 10.4004 12.0001 10.4004C12.8836 10.4004 13.5998 11.1166 13.5998 12.0002C13.5998 12.8837 12.8836 13.5999 12.0001 13.5999C11.1165 13.5999 10.4003 12.8837 10.4003 12.0002ZM12.0001 8.90039C10.2881 8.90039 8.90028 10.2882 8.90028 12.0002C8.90028 13.7121 10.2881 15.0999 12.0001 15.0999C13.712 15.0999 15.0998 13.7121 15.0998 12.0002C15.0998 10.2882 13.712 8.90039 12.0001 8.90039Z" fill="#B3B3B3"/>
</svg>
