<svg width="25" height="25" viewBox="0 0 25 25" fill="none" xmlns="http://www.w3.org/2000/svg">
<path d="M12.1671 5.19113C12.2719 4.86867 12.7281 4.86867 12.8329 5.19113L14.2924 9.68301C14.3392 9.82722 14.4736 9.92486 14.6252 9.92486H19.3483C19.6873 9.92486 19.8283 10.3587 19.554 10.558L15.733 13.3341C15.6103 13.4233 15.559 13.5813 15.6058 13.7255L17.0653 18.2173C17.1701 18.5398 16.801 18.8079 16.5267 18.6087L12.7057 15.8325C12.583 15.7434 12.4169 15.7434 12.2943 15.8325L8.47324 18.6087C8.19894 18.8079 7.82988 18.5398 7.93465 18.2173L9.39415 13.7255C9.44101 13.5813 9.38968 13.4233 9.267 13.3341L5.44598 10.558C5.17168 10.3587 5.31265 9.92486 5.65171 9.92486H10.3748C10.5264 9.92486 10.6608 9.82722 10.7076 9.68301L12.1671 5.19113Z" stroke="#CACACA" stroke-width="1.5"/>
</svg>
