<svg width="24" height="24" viewBox="0 0 24 24" fill="none" xmlns="http://www.w3.org/2000/svg">
<path d="M14.0793 5.31033L19.683 16.2029C20.7239 18.2263 18.9479 20.5906 16.9126 19.8909C16.9126 19.8909 15 19.5 14 18.5C13.023 17.523 12.2361 15.2238 12.2005 15.1187C12.1994 15.1153 12.1986 15.1132 12.1973 15.1099C12.1205 14.9212 11.8641 14.9012 11.7567 15.0674C11.747 15.0824 11.7411 15.099 11.7363 15.1163C11.6646 15.3763 11.0403 17.5556 10.0001 18.5C9.06144 19.3522 7.05345 19.8624 7.05345 19.8624C5.01421 20.5504 3.25183 18.1758 4.30445 16.1585L9.97096 5.29845C10.877 3.56196 13.1833 3.56863 14.0793 5.31033Z" stroke="#292D32" stroke-width="1.5" stroke-linecap="round"/>
</svg>
