<svg width="89" height="30" viewBox="0 0 89 30" fill="none" xmlns="http://www.w3.org/2000/svg">
<path d="M19 17.1169V12.8831C19 12.4944 19.424 12.2544 19.7572 12.4543L23.2854 14.5713C23.6091 14.7655 23.6091 15.2345 23.2854 15.4287L19.7572 17.5457C19.424 17.7456 19 17.5056 19 17.1169Z" stroke="#1D1B29" stroke-opacity="0.5" stroke-width="1.5" stroke-linecap="round"/>
<path d="M16 12V18" stroke="#1D1B29" stroke-opacity="0.5" stroke-width="1.5" stroke-linecap="round"/>
<rect x="12" y="7" width="16" height="16" rx="2.8" stroke="#1D1B29" stroke-opacity="0.5" stroke-width="1.5"/>
<path d="M36.5795 11.7102V10.7727H43.125V11.7102H40.3807V19.5H39.3239V11.7102H36.5795ZM48.214 16.8239V12.9545H49.2197V19.5H48.214V18.392H48.1459C47.9925 18.7244 47.7538 19.0071 47.43 19.2401C47.1061 19.4702 46.697 19.5852 46.2027 19.5852C45.7936 19.5852 45.43 19.4957 45.1118 19.3168C44.7936 19.1349 44.5436 18.8622 44.3618 18.4986C44.18 18.1321 44.089 17.6705 44.089 17.1136V12.9545H45.0947V17.0455C45.0947 17.5227 45.2283 17.9034 45.4953 18.1875C45.7652 18.4716 46.1089 18.6136 46.5265 18.6136C46.7765 18.6136 47.0308 18.5497 47.2893 18.4219C47.5507 18.294 47.7694 18.098 47.9456 17.8338C48.1246 17.5696 48.214 17.233 48.214 16.8239ZM54.2683 12.9545V13.8068H50.8763V12.9545H54.2683ZM51.8649 11.3864H52.8706V17.625C52.8706 17.9091 52.9118 18.1222 52.9941 18.2642C53.0794 18.4034 53.1873 18.4972 53.318 18.5455C53.4515 18.5909 53.5922 18.6136 53.7399 18.6136C53.8507 18.6136 53.9416 18.608 54.0126 18.5966C54.0836 18.5824 54.1405 18.571 54.1831 18.5625L54.3876 19.4659C54.3194 19.4915 54.2243 19.517 54.1021 19.5426C53.9799 19.571 53.8251 19.5852 53.6376 19.5852C53.3535 19.5852 53.0751 19.5241 52.8024 19.402C52.5325 19.2798 52.3081 19.0938 52.1291 18.8438C51.953 18.5938 51.8649 18.2784 51.8649 17.8977V11.3864ZM58.7299 19.6364C58.1389 19.6364 57.6205 19.4957 57.1745 19.2145C56.7313 18.9332 56.3847 18.5398 56.1347 18.0341C55.8875 17.5284 55.7639 16.9375 55.7639 16.2614C55.7639 15.5795 55.8875 14.9844 56.1347 14.4759C56.3847 13.9673 56.7313 13.5724 57.1745 13.2912C57.6205 13.0099 58.1389 12.8693 58.7299 12.8693C59.3208 12.8693 59.8378 13.0099 60.281 13.2912C60.727 13.5724 61.0736 13.9673 61.3208 14.4759C61.5708 14.9844 61.6958 15.5795 61.6958 16.2614C61.6958 16.9375 61.5708 17.5284 61.3208 18.0341C61.0736 18.5398 60.727 18.9332 60.281 19.2145C59.8378 19.4957 59.3208 19.6364 58.7299 19.6364ZM58.7299 18.733C59.1787 18.733 59.548 18.6179 59.8378 18.3878C60.1276 18.1577 60.3421 17.8551 60.4813 17.4801C60.6205 17.1051 60.6901 16.6989 60.6901 16.2614C60.6901 15.8239 60.6205 15.4162 60.4813 15.0384C60.3421 14.6605 60.1276 14.3551 59.8378 14.1222C59.548 13.8892 59.1787 13.7727 58.7299 13.7727C58.281 13.7727 57.9117 13.8892 57.6219 14.1222C57.3321 14.3551 57.1176 14.6605 56.9784 15.0384C56.8392 15.4162 56.7696 15.8239 56.7696 16.2614C56.7696 16.6989 56.8392 17.1051 56.9784 17.4801C57.1176 17.8551 57.3321 18.1577 57.6219 18.3878C57.9117 18.6179 58.281 18.733 58.7299 18.733ZM63.5909 19.5V12.9545H64.5625V13.9432H64.6307C64.75 13.6193 64.9659 13.3565 65.2784 13.1548C65.5909 12.9531 65.9432 12.8523 66.3352 12.8523C66.4091 12.8523 66.5014 12.8537 66.6122 12.8565C66.723 12.8594 66.8068 12.8636 66.8637 12.8693V13.892C66.8296 13.8835 66.7514 13.8707 66.6293 13.8537C66.51 13.8338 66.3835 13.8239 66.25 13.8239C65.9318 13.8239 65.6477 13.8906 65.3977 14.0241C65.1506 14.1548 64.9546 14.3366 64.8097 14.5696C64.6676 14.7997 64.5966 15.0625 64.5966 15.358V19.5H63.5909ZM68.4158 19.5V12.9545H69.4214V19.5H68.4158ZM68.9271 11.8636C68.7311 11.8636 68.5621 11.7969 68.42 11.6634C68.2808 11.5298 68.2112 11.3693 68.2112 11.1818C68.2112 10.9943 68.2808 10.8338 68.42 10.7003C68.5621 10.5668 68.7311 10.5 68.9271 10.5C69.1232 10.5 69.2908 10.5668 69.43 10.7003C69.572 10.8338 69.643 10.9943 69.643 11.1818C69.643 11.3693 69.572 11.5298 69.43 11.6634C69.2908 11.7969 69.1232 11.8636 68.9271 11.8636ZM73.5496 19.6534C73.1348 19.6534 72.7584 19.5753 72.4203 19.419C72.0822 19.2599 71.8138 19.0312 71.6149 18.733C71.416 18.4318 71.3166 18.0682 71.3166 17.642C71.3166 17.267 71.3905 16.9631 71.5382 16.7301C71.6859 16.4943 71.8834 16.3097 72.1305 16.1761C72.3777 16.0426 72.6504 15.9432 72.9487 15.8778C73.2498 15.8097 73.5524 15.7557 73.8564 15.7159C74.2541 15.6648 74.5765 15.6264 74.8237 15.6009C75.0737 15.5724 75.2555 15.5256 75.3692 15.4602C75.4856 15.3949 75.5439 15.2812 75.5439 15.1193V15.0852C75.5439 14.6648 75.4288 14.3381 75.1987 14.1051C74.9714 13.8722 74.6263 13.7557 74.1632 13.7557C73.6831 13.7557 73.3067 13.8608 73.0339 14.071C72.7612 14.2812 72.5694 14.5057 72.4587 14.7443L71.5041 14.4034C71.6746 14.0057 71.9018 13.696 72.1859 13.4744C72.4729 13.25 72.7854 13.0937 73.1234 13.0057C73.4643 12.9148 73.7996 12.8693 74.1291 12.8693C74.3393 12.8693 74.5808 12.8949 74.8535 12.946C75.1291 12.9943 75.3947 13.0952 75.6504 13.2486C75.9089 13.402 76.1234 13.6335 76.2939 13.9432C76.4643 14.2528 76.5496 14.6676 76.5496 15.1875V19.5H75.5439V18.6136H75.4927C75.4246 18.7557 75.3109 18.9077 75.1518 19.0696C74.9927 19.2315 74.7811 19.3693 74.5169 19.483C74.2527 19.5966 73.9302 19.6534 73.5496 19.6534ZM73.703 18.75C74.1007 18.75 74.4359 18.6719 74.7087 18.5156C74.9842 18.3594 75.1916 18.1577 75.3308 17.9105C75.4729 17.6634 75.5439 17.4034 75.5439 17.1307V16.2102C75.5013 16.2614 75.4075 16.3082 75.2626 16.3509C75.1206 16.3906 74.9558 16.4261 74.7683 16.4574C74.5837 16.4858 74.4033 16.5114 74.2271 16.5341C74.0538 16.554 73.9132 16.571 73.8052 16.5852C73.5439 16.6193 73.2996 16.6747 73.0723 16.7514C72.8479 16.8253 72.666 16.9375 72.5268 17.0881C72.3905 17.2358 72.3223 17.4375 72.3223 17.6932C72.3223 18.0426 72.4515 18.3068 72.7101 18.4858C72.9714 18.6619 73.3024 18.75 73.703 18.75ZM79.7508 10.7727V19.5H78.7451V10.7727H79.7508Z" fill="#1D1B29" fill-opacity="0.5"/>
<rect x="0.5" y="0.5" width="88" height="29" rx="3.5" stroke="#1D1B29" stroke-opacity="0.5"/>
</svg>
