<svg width="26" height="17" viewBox="0 0 26 17" fill="none" xmlns="http://www.w3.org/2000/svg">
<path d="M1 8.5C1 4.35786 4.35786 1 8.5 1H17.5C21.6421 1 25 4.35786 25 8.5C25 12.6421 21.6421 16 17.5 16H8.5C4.35786 16 1 12.6421 1 8.5Z" fill="#18A0FB"/>
<path d="M23 8.49999C23 11.5376 20.5376 14 17.5 14C14.4624 14 12 11.5376 12 8.49999C12 5.46242 14.4624 2.99999 17.5 2.99999C20.5376 2.99999 23 5.46242 23 8.49999Z" fill="white"/>
<path d="M8.5 2H17.5V0H8.5V2ZM17.5 15H8.5V17H17.5V15ZM8.5 15C4.91015 15 2 12.0899 2 8.5H0C0 13.1944 3.80558 17 8.5 17V15ZM24 8.5C24 12.0899 21.0898 15 17.5 15V17C22.1944 17 26 13.1944 26 8.5H24ZM17.5 2C21.0899 2 24 4.91015 24 8.5H26C26 3.80558 22.1944 0 17.5 0V2ZM8.5 0C3.80558 0 0 3.80558 0 8.5H2C2 4.91015 4.91015 2 8.5 2V0Z" fill="#18A0FB"/>
</svg>
